/* XPM */
static char * pomme_xpm[] = {
"64 64 30 1",
" 	c #F8FAED",
".	c #FAFCEF",
"+	c #FCFEF1",
"@	c #FEFFF3",
"#	c #FDFFF2",
"$	c #FBFDF0",
"%	c #F4F6E9",
"&	c #F9FBEE",
"*	c #F7F9EC",
"=	c #F9FBF0",
"-	c #FAFCF1",
";	c #FCFEF3",
">	c #FEFFF5",
",	c #FBFDF2",
"'	c #F7F9EE",
")	c #F8FAEF",
"!	c #FDFFF4",
"~	c #FFFFF6",
"{	c #F6F8ED",
"]	c #FFFFF4",
"^	c #F6F8EB",
"/	c #000000",
"(	c #FFFFFF",
"_	c #CDDC39",
":	c #8BC34A",
"<	c #4CAF50",
"[	c #795548",
"}	c #B71C1C",
"|	c #FF5252",
"1	c #FFCDD2",
" .+@@#+$% $$$+.&* =-=-;>;,=''=,;;-)')=,;!!!,=)==;!>>,=))--;>~>;,",
" &.$$.& *.$..$.&{)===-,!,-=)==,,,-=)=,;!!!;-=)-,-;!!;,-,,,;!!!;,",
"....& **.++.&.$.)-,,--,;=--,,,,-,---,!!!!;,-=-;!,,;;,,;!!;;;,;;;",
"#+$.&&&&$++.&$$$,!>>;,,;=-;!!;-=--,;!>>!;,,--,!>;;,,,,;!>>;,--,!",
"]@+....$+@@$...&!>~~!,---,!~~!-=-,;!>>!;---,;!!!;,-=-,!>~>;-==,!",
"@#$&&&.$@]]+.& ^,!>>;-))=,!>>!-=-,;!>>;,==-,/////=))-;>~>>!,==,!",
"@#.&  &.@]@+&& *=,!>;-=))=,!!;-===,!>>;,===-/////)')-;!>!!!,==,!",
"@#$&   &+##.&..&)-!>!,--{'=,;,,-')-;>>!,-=)(/////=))=,;;;!!;-=,;",
"@+.&    #++.&&&&=-,,,,--')-;;--,,-=-;!//////__::://,,-,,;;;;;,,,",
"+$......$$$$$$++--,,;;;;-=-;;,,!;;,,;;//////__::://!;,,,,;;;;;;;",
"$$$+#++$.$$+###@,,,,,;!>!;,;;,;>>>!;//___:::<<<<<<<///,,,,;!!!;;",
"$+#@@#$..$$+#@##!;,--;!>~!;;,-;~>~>!//___:::<<<<<<<///,--,;!>!!;",
"$$#@]@+....$#@#+,-==-;!~>;,,-=,>>>>;//___:::<<<<<<<///-=-,;!>!!;",
"..$#@@#+&  .+@@#)))=-;>~!,/////!!///::<<<<<<///////!;,---,;!!;;,",
"..$+##++.& .+##+))=-,;;!,-/////;!///::<<<<<<///////!;,,,,,,;;,,,",
"+$$$$$$.#$..+#+$--,;;,-///[[[[[//:::<<//////(;(;,;;;;,,;,,,,,,,,",
",!>!-=,!>!,;!!;-.+@]@+$///[[[[[//:::<<//////(##+;,===-;!;;;,--,;",
"!>~!-)-;>>!;;;,-.+@]@+.///[[[[[//:::<<//////#@@#!;-==-;>>>;,==-,",
">~>;=)-,~~>!,-==.+@]@+.&.$//[[[///////]@(& &+@]@>!-==,!~~>;-))=,",
"!>!;-=,;>~~!-))=$+@]#$.&&.//[[[///////@#$&* +@@#>;-==,!~!!,=))-;",
"!!!;--,;!!!;=))/////////////}}}//|||}}////////#+;,-=-,!>!;,=)=-;",
">>!;,---,;;,-==/////////////}}}//|||}}////////$$----,;;;;;;,-=--",
";!!!;,--,---,;;/////////////}}}//|||}}////////..-,;!!;,--,!!;,--",
"-,;!!;;,--=,!//}}}||111////////}}/////}}}}}}}}///;>~>;-))-;>!!;,",
"--,!~~>;-=-,!//}}}||111////////}}/////}}}}}}}}///;!~~!,-,,,!>>;-",
",,;!~>;,-==-;//}}}||111////////}}/////}}}}}}}}///,!>>!,---,!~~!;",
"-,;>>>;,-=///}}|||1111111111111|||||||111111}}}}}//!!;,-)=-;>>!,",
"=-;!>>!;==///}}|||1111111111111|||||||111111}}}}}//;;,,-')-,;;,-",
"-,;!!!;;=-///}}}}}1111111111||||||||}}}}}|||11}}}//,,,,,=-,,,-==",
"!!!!,,-,-,///}}}}}1111111111||||||||}}}}}|||11}}}//,,,;;;!!;,---",
"~~>;-=-,;!///}}}}}1111111111||||||||}}}}}|||11}}}//,-,;!>~>;,-,;",
">>!,-=,;//}}}}}|||11111111|||||||}}}||}}}}}}||111//,-,!>>>!,-=,;",
">>!;--,!//}}}}}|||11111111|||||||}}}||}}}}}}||111//..$#@@#+$$$++",
">>!;-=-,//}}}||}}}||111||||||||}}|||}}}}}}}}}}111}}///++#+$.&&..",
"!!!;----//}}}||}}}||111||||||||}}|||}}}}}}}}}}111}}///$$++$.&&&&",
",;;;;,,,//}}}||}}}||111||||||||}}|||}}}}}}}}}}111}}///$$++++$$$$",
"-,,;!!!;//}}}}}|||}}|||}}}||}}}||}}}}}}}}}}}}}111}}///+$$$+#####",
"--,;>>>>//}}}}}|||}}|||}}}||}}}||}}}}}}}}}}}}}111}}///+$ &$+####",
"-=-,!>>!//}}}}}}}}||}}}|||}}|||}}}}}}}}}}}}}}}|||}}///$& &$+##++",
"-==-;!!!//}}}}}}}}||}}}|||}}|||}}}}}}}}}}}}}}}|||}}///&* .+#@#++",
"..&.+#+$//}}}}}}}}||}}}|||}}|||}}}}}}}}}}}}}}}|||}}/// ^ &$+++++",
"$..$+++$//}}}}}}}}}}}}}}}}}}}}}}}}}}}}}}}}}}}}}}}}}///. .$++$$$$",
"++++++$.//}}}}}}}}}}}}}}}}}}}}}}}}}}}}}}}}}}}}}}}}}///$$+#++$..$",
"####+$.&//}}}}}}}}}}}}}}}}}}}}}}}}}}}}}}}}}}}}}}}}}///##@##$...$",
"@@@#+..&//}}}}}}}}}}}}}}}}}}}}}}}}}}}}}}}}}}}}|||}}///#@##+$..$+",
"@@@+$&&&//}}}}}}}}}}}}}}}}}}}}}}}}}}}}}}}}}}}}|||}}///+#+++...$+",
"@@#$& &.+#///}}}}}}}}}}}}}}}}}}}}}}}}}}}}}}}||}}}// &.$+++$.&&..",
"@@#$  &.$#///}}}}}}}}}}}}}}}}}}}}}}}}}}}}}}}||}}}//  &.$++$.&&&&",
"!!;,----,;///}}}}}}}}}}}}}}}}}}}}}}}}}}}}}}}||}}}//$$$$$$+#+$$$$",
",,;;;;!!;;///}}}}}}}}}}}}}}}}}}}}}}}||}}}|||}}}}}//++++$$++##++$",
",,;;!>>~!,///}}}}}}}}}}}}}}}}}}}}}}}||}}}|||}}}}}//@@##+$$$#@]#$",
",,,;!>>>!-)=;//}}}}}}}}}}}}}}}}}}|||}}|||}}}}}///$#@@@#+.&.+]]#$",
"---;!>!!,='),//}}}}}}}}}}}}}}}}}}|||}}|||}}}}}///.+#@#+$& &$@@+.",
"===,!>!;-=)=,//}}}}}}}}}}}}}}}}}}|||}}|||}}}}}///$+##+$$&&&$##$.",
"-==,!>;,---,,,,/////}}}}}}}}/////}}}}}}}}}}}//.&$$++++$...$$$$$.",
";,,;!!,==,;;;,,/////}}}}}}}}/////}}}}}}}}}}}//..+++++$$$$+++$..$",
"@#++#+. ++#@@#++.$+@////////!!;;$///////////$+##@#+$.$#@#@@#.&.+",
"@##++$. $+#@##$$.$#@////////!!!;$///////////.$##@#+...+@#@@+.&.$",
"#@@#$.&&$+#@#+.&.$#@////////(>!;.///////////&$+#@#+.&.+#@@#$&&.$",
"#@@#.&&.$+###$& .$#@@#$.==-;>>!!. *&+@@+$.   .+#@#+.&&$+@##$&&.$",
"+##+.&.$$+##+$& .$+##+$.=--;!>!;.& &+##+$.&&&.$+##+.&.$+##+$...$",
"+++$..$$$++++$..&.$+#+$$,,,,;!;;$$..$+++$$$$..$$+++$$$$+++++$$$$",
"+$..$$+$+++++$$$&.$$++++!;,,,,,,+##+$.$$+###$..$$++#+++++++###++",
"+.&.$++$++++++++&&.$$+##>!,--,,-#@]#.&.$+#]@+$...$####++$$+#@@#+"};
