/* XPM */
static char * ryuk_xpm[] = {
"64 64 56 1",
" 	c #F8FAED",
".	c #FAFCEF",
"+	c #FCFEF1",
"@	c #FEFFF3",
"#	c #FDFFF2",
"$	c #FBFDF0",
"%	c #F4F6E9",
"&	c #F9FBEE",
"*	c #F7F9EC",
"=	c #F9FBF0",
"-	c #FAFCF1",
";	c #FCFEF3",
">	c #FEFFF5",
",	c #FBFDF2",
"'	c #F7F9EE",
")	c #F8FAEF",
"!	c #FDFFF4",
"~	c #FFFFF6",
"{	c #F6F8ED",
"]	c #FFFFF4",
"^	c #070906",
"/	c #373E39",
"(	c #F6F8EB",
"_	c #000000",
":	c #1D1F18",
"<	c #6284A6",
"[	c #0D1115",
"}	c #1E2B35",
"|	c #3D546B",
"1	c #3F494E",
"2	c #5A717E",
"3	c #D7E4EC",
"4	c #85A5B8",
"5	c #2C3032",
"6	c #0E1112",
"7	c #7E1B1B",
"8	c #242E35",
"9	c #48626F",
"0	c #0E1321",
"a	c #2A385C",
"b	c #161E32",
"c	c #C0C0C0",
"d	c #B1B8B8",
"e	c #353C3C",
"f	c #3D5658",
"g	c #1F2B2C",
"h	c #1C201D",
"i	c #667171",
"j	c #8BA0A1",
"k	c #5B6666",
"l	c #C8D5D5",
"m	c #D76F71",
"n	c #832527",
"o	c #B43235",
"p	c #56181A",
"q	c #7B7D7B",
" .+@@#+$% $$$+.&* =-=-;>;,=''=,;;-)')=,;!!!,=)==;!>>,=))--;>~>;,",
" &.$$.& *.$..$.&{)===-,!,-=)==,,,-=)=,;!!!;-=)-,-;!!;,-,,,;!!!;,",
"....& **.++.&.$.)-,,--,;=--,,,,-,---,!!!!;,-=-;!,,;;,,;!!;;;,;;;",
"#+$.&&&&$++.&$$$,!>>;,,;=-;!!;-=--,;!>>!;,,--,!>;;,,,,;!>>;,--,!",
"]@+...^$+@@$...&!>~~!,---,!~~!-=-,;!>>!;---,;!!!;,-=-,!>~>;-==,!",
"@#$&&&.^@]]+.&/(,!>>;-))=,!>>!-=-,;!>>;,==-,!!!;-=))-;>~>>!,==,!",
"@#.&  &.^_@+&& /=,!>;-=))=,!!;-===,!>>;,===-;!!;-)')-;!>!!!,==,!",
"@#$&   &_^_.&../_-!>!,--{'=,;,,-')-;>>!,-=)^,!!!,=))=,;;;!!;-=,;",
"@+.&   ___:/^_&_^/,,,,--')-;;--,,-=-;!!;'__=___!-,/,,-,,;;;;;,,,",
"+$......_^_::/__^:_,;;;;-=-;;,,!;;,,;;,,_:__:/,,,/!!;,,,,;;;;;;;",
"$_____^^_____:^__^_,,<!>!;,;;,;>>>!;,-__:^^:^___/_>>!;,,,,;!!!;;",
"$+_^:///:^_^^_:^__[_[<!>[!;;,-;~>~>!-=^/:_^__^/^_!~~>;,--,;!>!!;",
"$$#@]_^:::/:^:::^[[}|[<[>;[,-=,>>>>;_/:^_^:/:^_^^^>>!,-=-,;!>!!;",
"..$#@@__^^:::^^[[|}|}[[~!}--==-!!!;_::^_^:/:^_^:_;!!;,---,;!!;;,",
"..$+##++__^://[[|[|}[|[[[}---=-;!;_^^:_^:/:^_^____;!;,,,,,,;;,,,",
"+$$$$$$__^_^::[}}[|}[}<|}[-,,=-;__:::^^://^^:///:^____,;,,,,,,,,",
",!>!-=,!>!_:^^}[[|}[[||[[[.++#_^_/^__^^__^:/^________-;!;;;,--,;",
"!>~!-)-;>>^:}}}[1[[[1[}[<|[[_#__/__/_^::^_/:::_#!;-==-;>>>;,==-,",
">~>;=)-,~~:^^[[23[242[}[|}}|[_/^^_/_^:^^::___^^___-==,!~~>;-))=,",
"!>!;-=,;>_::_[[43[3342[}}}[[^:::_/:__:_________^^^-==,!~!!,=))-;",
"!!!;--,;!_!;=)[4333333[[}[^^::^://__##_:^_ &$##+;,^=-,!>!;,=)=-;",
">>!;,---,;;,-=_1534542[1_[//^:///^://_+_:/$.$$$$----,;;;;;;,-=--",
";!!!;,--,---,;__53566_[4_^^:__:^^:/___$+_^#+....-,;!!;,--,!!;,--",
"-,;!!;;,--=,!>_7_467_1[3_^:_89_://_++.&$+_@#$&&$,;>~>;-))-;>!!;,",
"--,!~~>;-=-,!~_4354330__386_88_6___//&&.@@@#+.& -;!~~!,-,,,!>>;-",
",,;!~>;,-==-;>>_a324b1_48966_89__@#$&/.$#@@@+.&&-,!>>!,---,!~~!;",
"-,;>>>;,-==-,!>_baa0b___9986_69_9_$& &.++###$.&&-,;!!;,-)=-;>>!,",
"=-;!>>!;==--,;!_0bcb2_+__8666_9_8_.&&.$$.$++.&& ,,;;;,,-')-,;;,-",
"-,;!!!;;=-,;;;;;_232_$+++$__6_8_69..$$$$.$$$$..$;;,,,,,,=-,,,-==",
"!!!!,,-,-,!>!;,,$____+$$$$.$__89_9.$+++$++++++#@!;,,,,;;;!!;,---",
"~~>;-=-,;!>>!,,,._99_#$...$_de89_8&.+##+++$$$+@]>!;,-,;!>~>;,-,;",
">>!,-=,;>>~>;,,,._89_#$..._dfd89__&.+@@@$..&&$#]>!;,-,!>>>!,-=,;",
">>!;--,!;>~~!-==._8_@#$.&__egd68___$#@@#+$ * .@]@#$..$#@@#+$$$++",
">>!;-=-,;!~>!,-=._8_@#$.&__hei_89__.+@@#$.&  .+@#+$..$++#+$.&&..",
"!!!;----;!>>;,--$_8_#++$.___:^_89_i_$###$.....$$++$$$$$$++$.&&&&",
",;;;;,,,;;!!;;,,$_8_++++_d^/^/_88_d_$+++$$+++$.&.$++++$$++++$$$$",
"-,,;!!!;,,,;;;;;+_6_$++#_e:^::_66_e_$$$++#@@#+. .$+@@#+$$$+#####",
"--,;>>>>,--,;!!!+_6_$$##___^^______+...$#@@]@+.&.$#@]@+$ &$+####",
"-=-,!>>!,-=-,!>>+__j_$#@__6_^&_kj_#$&&.$#@@@#+.&$+@@@#$& &$+##++",
"-==-;!!!,-==,!>>#_jk_$#@__6_&&_kll#$& &$####+$.&+#@@#$&* .+#@#++",
"..&.+#+$+.&&$#@@_k896_#_68_.&_8_kk#$ *&$$+##+$& $$+##$ ( &$+++++",
"$..$+++$$.&.$++++_96_8+_98_$_6_8__+$&&.$+++++$..+++##+. .$++$$$$",
"++++++$.$...$$$.+___m_$_86$$6__96_$.$$+++++$$$$$#+++++$$+#++$..$",
"####+$.&$$+++$.&+__nom_966.+#@_98_..+@#+++$$$$+#@#+$+###@##$...$",
"@@@#+..&+#@@#$.&+__ppn96_ .+@]8__6&.#]@++$...$#@@#$.$+#@##+$..$+",
"@@@+$&&&+#]@#$.&$+8_pp886_.+@__6_6&$#]@++$.&&$+#@+.&.$+#+++...$+",
"@@#$& &.+#@@+.&&.$_6_6_98_.$_66_66_$#@##$.&&&.$+@+. &.$+++$.&&..",
"@@#$  &.$#@@+.&&&.$__+_696&66_+_68_$+###$.& &&$$#+&  &.$++$.&&&&",
"!!;,----,;!!;,--$$$..$+_98,,,;;;_96_..$+++$$.....$$$$$$$$+#+$$$$",
",,;;;;!!;;;;;;;;$..&&.$_68_,,,;!_88_...$+++++$$..$+++++$$++##++$",
",,;;!>>~!,-,;>>>+$.&&.+#_9_;-=,!#_8_.&&.+#@@@+$..$+@@##+$$$#@]#$",
",,,;!>>>!-)=;>~>@#$..$#@_9_;))-!@_8_.&&&$+@]@#.&.$#@@@#+.&.+]]#$",
"---;!>!!,='),!>>@#$..$#q_86_)'=;]@986_&&.$#@@+. &.+#@#+$& &$@@+.",
"===,!>!;-=)=,;!;+$.&&.+_696_))=,@@986_&..$+#+$& .$+##+$$&&&$##$.",
"-==,!>;,---,,,,,$..&&.$_896_---,##986_.$$$+$$..&$$++++$...$$$$$.",
";,,;!!,==,;;;,,,$$$..$_998_,,,,;+#988_$+++$$....+++++$$$$+++$..$",
"@#++#+. ++#@@#++.$+@@@986_;;!!;;$$89_##@@+.&$+##@#+$.$#@#@@#.&.+",
"@##++$. $+#@##$$.$#@@#___,,;!!!;$.68_@@##$&&.$##@#+...+@#@@+.&.$",
"#@@#$.&&$+#@#+.&.$#@@#$.--,;>>!;.&__+@@#+.& &$+#@#+.&.+#@@#$&&.$",
"#@@#.&&.$+###$& .$#@@#$.==-;>>!!. *&+@@+$.   .+#@#+.&&$+@##$&&.$",
"+##+.&.$$+##+$& .$+##+$.=--;!>!;.& &+##+$.&&&.$+##+.&.$+##+$...$",
"+++$..$$$++++$..&.$+#+$$,,,,;!;;$$..$+++$$$$..$$+++$$$$+++++$$$$",
"+$..$$+$+++++$$$&.$$++++!;,,,,,,+##+$.$$+###$..$$++#+++++++###++",
"+.&.$++$++++++++&&.$$+##>!,--,,-#@]#.&.$+#]@+$...$####++$$+#@@#+"};
