/* XPM */
static char * sol_xpm[] = {
"64 64 21 1",
" 	c #F8FAED",
".	c #FAFCEF",
"+	c #FCFEF1",
"@	c #FEFFF3",
"#	c #FDFFF2",
"$	c #FBFDF0",
"%	c #F4F6E9",
"&	c #F9FBEE",
"*	c #F7F9EC",
"=	c #F9FBF0",
"-	c #FAFCF1",
";	c #FCFEF3",
">	c #FEFFF5",
",	c #FBFDF2",
"'	c #F7F9EE",
")	c #F8FAEF",
"!	c #FDFFF4",
"~	c #FFFFF6",
"{	c #F6F8ED",
"]	c #FFFFF4",
"^	c #F6F8EB",
" .+@@#+$% $$$+.&* =-=-;>;,=''=,;;-)')=,;!!!,=)==;!>>,=))--;>~>;,",
" &.$$.& *.$..$.&{)===-,!,-=)==,,,-=)=,;!!!;-=)-,-;!!;,-,,,;!!!;,",
"....& **.++.&.$.)-,,--,;=--,,,,-,---,!!!!;,-=-;!,,;;,,;!!;;;,;;;",
"#+$.&&&&$++.&$$$,!>>;,,;=-;!!;-=--,;!>>!;,,--,!>;;,,,,;!>>;,--,!",
"]@+....$+@@$...&!>~~!,---,!~~!-=-,;!>>!;---,;!!!;,-=-,!>~>;-==,!",
"@#$&&&.$@]]+.& ^,!>>;-))=,!>>!-=-,;!>>;,==-,!!!;-=))-;>~>>!,==,!",
"@#.&  &.@]@+&& *=,!>;-=))=,!!;-===,!>>;,===-;!!;-)')-;!>!!!,==,!",
"@#$&   &+##.&..&)-!>!,--{'=,;,,-')-;>>!,-=)=,!!!,=))=,;;;!!;-=,;",
"@+.&    #++.&&&&=-,,,,--')-;;--,,-=-;!!;'=-=-;!!-,,,,-,,;;;;;,,,",
"+$......$$$$$$++--,,;;;;-=-;;,,!;;,,;;,,,;!,-,,,,;!!;,,,,;;;;;;;",
"$$$+#++$.$$+###@,,,,,;!>!;,;;,;>>>!;,---!~~!,,-=;!>>!;,,,,;!!!;;",
"$+#@@#$..$$+#@##!;,--;!>~!;;,-;~>~>!-=-,!~~!;,-);!~~>;,--,;!>!!;",
"$$#@]@+....$#@#+,-==-;!~>;,,-=,>>>>;-=-,;>~!,-=',!>>!,-=-,;!>!!;",
"..$#@@#+&  .+@@#)))=-;>~!,--==-!!!;,--,;!>>;-=)',;!!;,---,;!!;;,",
"..$+##++.& .+##+))=-,;;!,----=-;!;----,,;>!,---=,;;!;,,,,,,;;,,,",
"+$$$$$$.#$..+#+$--,;;,---=-,,=-;>;==-,,--;;,-;;;,;;;;,,;,,,,,,,,",
",!>!-=,!>!,;!!;-.+@]@+$. &.++#++&..&.##$+$++###+;,===-;!;;;,--,;",
"!>~!-)-;>>!;;;,-.+@]@+.&&.$###+$.$$$+@]#$..$#@@#!;-==-;>>>;,==-,",
">~>;=)-,~~>!,-==.+@]@+.&.$+#@#+$&.$+#]]@.& &+@]@>!-==,!~~>;-))=,",
"!>!;-=,;>~~!-))=$+@]#$.&&.+#@#+$* .$#@@#$&* +@@#>;-==,!~!!,=))-;",
"!!!;--,;!!!;=)))$+@@#$.& &$+#++$  &$##+++. &$##+;,-=-,!>!;,=)=-;",
">>!;,---,;;,-===$+##+$$.&&.$+++$$..+#+++++$.$$$$----,;;;;;;,-=--",
";!!!;,--,---,;;,$+++$$$+.$$$++++#$$+#$$++##+....-,;!!;,--,!!;,--",
"-,;!!;;,--=,!>>!$$$$$$+#+++$$+++@+$++.&$+#@#$&&$,;>~>;-))-;>!!;,",
"--,!~~>;-=-,!~>!#+$.$+@]@@@+$.+#@@@+.&&.@@@#+.& -;!~~!,-,,,!>>;-",
",,;!~>;,-==-;>>>#+$..+#@@@#$..$+@@#$&&.$#@@@+.&&-,!>>!,---,!~~!;",
"-,;>>>;,-==-,!>~#+...$#@##+.&&.$@#$& &.++###$.&&-,;!!;,-)=-;>>!,",
"=-;!>>!;==--,;!>+$...$+##+$.&&..+$.&&.$$.$++.&& ,,;;;,,-')-,;;,-",
"-,;!!!;;=-,;;;;;+$$$$$+++$..........$$$$.$$$$..$;;,,,,,,=-,,,-==",
"!!!!,,-,-,!>!;,,$$++++$$$$.$$+$$&&.$+++$++++++#@!;,,,,;;;!!;,---",
"~~>;-=-,;!>>!,,,.$#@@#$...$+@@+$.&&.+##+++$$$+@]>!;,-,;!>~>;,-,;",
">>!,-=,;>>~>;,,,.$#]]#$...$#]]#+$.&.+@@@$..&&$#]>!;,-,!>>>!,-=,;",
">>!;--,!;>~~!-==.$#@@#$.&&.+@]@#...$#@@#+$ * .@]@#$..$#@@#+$$$++",
">>!;-=-,;!~>!,-=.$#@@#$.&&.+#@#+&&&.+@@#$.&  .+@#+$..$++#+$.&&..",
"!!!;----;!>>;,--$$+##++$..$$##++&&&.$###$.....$$++$$$$$$++$.&&&&",
",;;;;,,,;;!!;;,,$$+++++++$$$+++$$...$+++$$+++$.&.$++++$$++++$$$$",
"-,,;!!!;,,,;;;;;+$$$$++#+++$..$$##+$$$$++#@@#+. .$+@@#+$$$+#####",
"--,;>>>>,--,;!!!++$.$$####+$..$+]@#+...$#@@]@+.&.$#@]@+$ &$+####",
"-=-,!>>!,-=-,!>>++...$#@##+.&&$+]@#$&&.$#@@@#+.&$+@@@#$& &$+##++",
"-==-;!!!,-==,!>>#+.&.$#@##+.&&$#@@#$& &$####+$.&+#@@#$&* .+#@#++",
"..&.+#+$+.&&$#@@++$..+#@##$.&&$++##$ *&$$+##+$& $$+##$ ^ &$+++++",
"$..$+++$$.&.$+++++$$$$++##+$...$+++$&&.$+++++$..+++##+. .$++$$$$",
"++++++$.$...$$$.+++++$$$++$$$+++#+$.$$+++++$$$$$#+++++$$+#++$..$",
"####+$.&$$+++$.&++###+$.&&.+#@@@#$..+@#+++$$$$+#@#+$+###@##$...$",
"@@@#+..&+#@@#$.&++@@@#$.  .+@]@#+.&.#]@++$...$#@@#$.$+#@##+$..$+",
"@@@+$&&&+#]@#$.&$+#@@#+$&&.+@@#$$.&$#]@++$.&&$+#@+.&.$+#+++...$+",
"@@#$& &.+#@@+.&&.$+##+$....$#@+..&.$#@##$.&&&.$+@+. &.$+++$.&&..",
"@@#$  &.$#@@+.&&&.$+++$.&&&$#@+.&&.$+###$.& &&$$#+&  &.$++$.&&&&",
"!!;,----,;!!;,--$$$..$++,,,,,;;;$$$$..$+++$$.....$$$$$$$$+#+$$$$",
",,;;;;!!;;;;;;;;$..&&.$+;;;,,,;!+++$...$+++++$$..$+++++$$++##++$",
",,;;!>>~!,-,;>>>+$.&&.+#!>>;-=,!###+.&&.+#@@@+$..$+@@##+$$$#@]#$",
",,,;!>>>!-)=;>~>@#$..$#@>~~;))-!@@#+.&&&$+@]@#.&.$#@@@#+.&.+]]#$",
"---;!>!!,='),!>>@#$..$#@!>>,)'=;]@@+.&&&.$#@@+. &.+#@#+$& &$@@+.",
"===,!>!;-=)=,;!;+$.&&.+#;!!,))=,@@#+.&&..$+#+$& .$+##+$$&&&$##$.",
"-==,!>;,---,,,,,$..&&.$+;;;,---,###+$..$$$+$$..&$$++++$...$$$$$.",
";,,;!!,==,;;;,,,$$$..$++;;,,,,,;+##+$$$+++$$....+++++$$$$+++$..$",
"@#++#+. ++#@@#++.$+@@@#+;;;;!!;;$$.$+##@@+.&$+##@#+$.$#@#@@#.&.+",
"@##++$. $+#@##$$.$#@@#+$,,,;!!!;$.&.+@@##$&&.$##@#+...+@#@@+.&.$",
"#@@#$.&&$+#@#+.&.$#@@#$.--,;>>!;.& &+@@#+.& &$+#@#+.&.+#@@#$&&.$",
"#@@#.&&.$+###$& .$#@@#$.==-;>>!!. *&+@@+$.   .+#@#+.&&$+@##$&&.$",
"+##+.&.$$+##+$& .$+##+$.=--;!>!;.& &+##+$.&&&.$+##+.&.$+##+$...$",
"+++$..$$$++++$..&.$+#+$$,,,,;!;;$$..$+++$$$$..$$+++$$$$+++++$$$$",
"+$..$$+$+++++$$$&.$$++++!;,,,,,,+##+$.$$+###$..$$++#+++++++###++",
"+.&.$++$++++++++&&.$$+##>!,--,,-#@]#.&.$+#]@+$...$####++$$+#@@#+"};
